<?xml version="1.0" encoding="UTF-8"?>
<svg width="277px" height="42px" viewBox="0 0 277 42" version="1.1" xmlns="http://www.w3.org/2000/svg" xmlns:xlink="http://www.w3.org/1999/xlink">
    <title>logo-lp-white</title>
    <g id="logo-lp-white" stroke="none" stroke-width="1" fill="none" fill-rule="evenodd">
        <g id="BaWue_Logo_Standard_rgb_pos" transform="translate(1, 1)" fill="#FFFFFF" fill-rule="nonzero">
            <path d="M41.99998,13.9481679 L47.56622,13.9481679 C49.7616,13.9481679 50.79872,15.4175508 50.79872,16.9215138 C50.79872,18.0969762 50.1937,19.2724585 48.96638,19.6700793 C50.43576,20.0848802 51.17906,21.2949226 51.17906,22.5914852 C51.17906,24.3893488 49.81348,26.0487721 47.25504,26.0487721 L41.99998,26.0487721 L41.99998,13.9481679 L41.99998,13.9481679 Z M46.8747,18.8402777 C47.92918,18.8402777 48.46508,18.1833164 48.46508,17.3882748 C48.46508,16.6447933 47.98104,16.0743321 46.9785,16.0743321 L44.2818,16.0743321 L44.2818,18.8402777 L46.8747,18.8402777 Z M47.01306,23.9052478 C48.29224,23.9052478 48.86268,23.1099862 48.86268,22.2284445 C48.86268,21.3814628 48.27494,20.6553613 47.11676,20.6553613 L44.28178,20.6553613 L44.28178,23.9052478 L47.01306,23.9052478 L47.01306,23.9052478 Z" id="Shape"></path>
            <path d="M52.54454,23.5941072 C52.54454,21.6407833 54.08306,21.1394623 55.37952,20.9492419 L57.17738,20.7072814 C57.85154,20.6035812 58.301,20.4479409 58.301,19.7563995 C58.301,19.0304981 57.79968,18.6846374 56.81434,18.6846374 C55.58702,18.6846374 55.05114,19.1687783 54.89548,19.9812 L52.80388,19.5318391 C53.23596,17.7685355 54.73992,16.9732939 56.9353,16.9732939 C59.35548,16.9732939 60.53094,17.9413559 60.53094,19.9466399 L60.53094,26.0487921 L58.45654,26.0487921 L58.45654,24.5276491 C57.92066,25.5820312 56.90074,26.2390125 55.44864,26.2390125 C53.75456,26.2390125 52.54454,25.3055106 52.54454,23.5941472 L52.54454,23.5941072 Z M56.08834,24.4065288 C57.40208,24.4065288 58.30102,23.5941072 58.30102,22.3321247 L58.30102,21.8481837 C57.97254,21.9690639 57.62678,22.0555841 57.12546,22.1247242 L56.12292,22.2803646 C55.48334,22.3666847 54.77452,22.5740851 54.77452,23.3693267 C54.77452,24.0608681 55.25856,24.4065288 56.08836,24.4065288 L56.08834,24.4065288 Z" id="Shape"></path>
            <path d="M62.29378,21.6234032 C62.29378,18.8574577 63.74588,16.9732739 66.20052,16.9732739 C67.44512,16.9732739 68.3959,17.4745949 68.87994,18.3389567 L68.87994,13.7579475 L71.09262,13.7579475 L71.09262,26.0487521 L69.01822,26.0487521 L69.01822,24.5793692 C68.65526,25.495491 67.72176,26.2389725 66.20052,26.2389725 C63.76316,26.2389725 62.29378,24.3893488 62.29378,21.6234032 L62.29378,21.6234032 Z M66.70184,24.2163284 C68.1021,24.2163284 68.87994,23.1619463 68.87994,21.5369031 C68.87994,19.99858 68.11938,18.995938 66.70184,18.995938 C65.30168,18.995938 64.5583,19.99858 64.5583,21.5888432 C64.5583,23.1619263 65.30168,24.2163284 66.70184,24.2163284 Z" id="Shape"></path>
            <path d="M72.92466,21.7099234 C72.92466,19.013118 74.39404,16.9732739 77.22902,16.9732739 C80.13312,16.9732739 81.3086,19.0650581 81.3086,21.6407833 L81.3086,22.2112444 L75.10276,22.2112444 C75.24102,23.6978274 75.96712,24.4411089 77.31544,24.4411089 C78.31808,24.4411089 78.9231,24.0608681 79.19962,23.3002066 L81.2913,23.7495675 C80.73814,25.3746107 79.3207,26.2389725 77.28086,26.2389725 C74.67058,26.2389725 72.92466,24.6139292 72.92466,21.7099234 L72.92466,21.7099234 Z M79.13048,20.7072814 C79.06134,19.4452989 78.45632,18.7711375 77.229,18.7711375 C76.00168,18.7711375 75.3621,19.4452989 75.1546,20.7072814 L79.13048,20.7072814 L79.13048,20.7072814 Z" id="Shape"></path>
            <path d="M83.14064,17.1289143 L85.28418,17.1289143 L85.28418,18.5291771 C85.7855,17.509155 86.78814,16.9732739 88.13644,16.9732739 C90.12432,16.9732739 91.10978,18.1661363 91.10978,20.1885804 L91.10978,26.0487521 L88.87972,26.0487521 L88.87972,20.5862012 C88.87972,19.497239 88.25752,18.9439779 87.32402,18.9439779 C86.16574,18.9439779 85.35332,19.7392195 85.35332,21.2086024 L85.35332,26.0487521 L83.14064,26.0487521 L83.14064,17.1289143 L83.14064,17.1289143 Z" id="Path"></path>
            <polygon id="Path" points="92.90726 19.0996382 97.69566 19.0996382 97.69566 21.0875222 92.90726 21.0875222 92.90726 19.0996382"></polygon>
            <polygon id="Path" points="98.20946 13.9481679 100.57778 13.9481679 102.70394 23.006266 104.98574 13.9481679 107.61322 13.9481679 109.89502 23.006266 112.02138 13.9481679 114.3895 13.9481679 111.31266 26.0487521 108.685 26.0487521 106.2995 17.1289143 103.914 26.0487521 101.28652 26.0487521 98.20948 13.9481679"></polygon>
            <path d="M115.18434,23.023666 L115.18434,17.1289143 L117.39702,17.1289143 L117.39702,22.6606253 C117.39702,23.7669675 117.98486,24.3200286 118.91816,24.3200286 C120.0245,24.3200286 120.7506,23.4212868 120.7506,22.021024 L120.7506,17.1289143 L122.98066,17.1289143 L122.98066,26.0487521 L120.88888,26.0487521 L120.88888,24.5276091 C120.42212,25.6856914 119.43688,26.2389725 118.1577,26.2389725 C116.23874,26.2389725 115.18434,25.0461101 115.18434,23.023666 L115.18434,23.023666 Z M116.4809,13.9655479 L118.39966,13.9655479 L118.39966,15.9534319 L116.4809,15.9534319 L116.4809,13.9655479 L116.4809,13.9655479 Z M119.7999,13.9655479 L121.71866,13.9655479 L121.71866,15.9534319 L119.7999,15.9534319 L119.7999,13.9655479 L119.7999,13.9655479 Z" id="Shape"></path>
            <path d="M124.93398,17.1289143 L127.07752,17.1289143 L127.07752,18.7191974 C127.37124,17.6993754 128.1319,17.0252141 129.27282,17.0252141 L130.05068,17.0252141 L130.05068,19.2033184 L129.25564,19.2033184 C127.7343,19.2033184 127.14666,20.1022602 127.14666,21.6579633 L127.14666,26.0487521 L124.93398,26.0487521 L124.93398,17.1289143 L124.93398,17.1289143 Z" id="Path"></path>
            <path d="M132.36682,23.507607 L132.36682,19.0822582 L130.8283,19.0822582 L130.8283,17.1289343 L132.36682,17.1289343 L132.36682,15.0890902 L134.59668,14.4668889 L134.59668,17.1289343 L136.39454,17.1289343 L136.39454,19.0822582 L134.59668,19.0822582 L134.59668,23.1445663 C134.59668,23.8187276 134.82146,24.0954482 135.5128,24.0954482 L136.58456,24.0954482 L136.58456,26.0487721 L134.90778,26.0487721 C133.2138,26.0487721 132.36682,25.2189704 132.36682,23.507607 L132.36682,23.507607 Z" id="Path"></path>
            <path d="M138.86618,23.507607 L138.86618,19.0822582 L137.32766,19.0822582 L137.32766,17.1289343 L138.86618,17.1289343 L138.86618,15.0890902 L141.09604,14.4668889 L141.09604,17.1289343 L142.8939,17.1289343 L142.8939,19.0822582 L141.09604,19.0822582 L141.09604,23.1445663 C141.09604,23.8187276 141.32082,24.0954482 142.01216,24.0954482 L143.08392,24.0954482 L143.08392,26.0487721 L141.40714,26.0487721 C139.71316,26.0487721 138.86618,25.2189704 138.86618,23.507607 L138.86618,23.507607 Z" id="Path"></path>
            <path d="M144.20746,21.7099234 C144.20746,19.013118 145.67684,16.9732739 148.51172,16.9732739 C151.41592,16.9732739 152.5914,19.0650581 152.5914,21.6407833 L152.5914,22.2112444 L146.38556,22.2112444 C146.52382,23.6978274 147.24992,24.4411089 148.59824,24.4411089 C149.60088,24.4411089 150.2059,24.0608681 150.48242,23.3002066 L152.5742,23.7495675 C152.02094,25.3746107 150.6035,26.2389725 148.56366,26.2389725 C145.95338,26.2389725 144.20746,24.6139292 144.20746,21.7099234 L144.20746,21.7099234 Z M150.4133,20.7072814 C150.34414,19.4452989 149.73912,18.7711375 148.51172,18.7711375 C147.28432,18.7711375 146.64492,19.4452989 146.43752,20.7072814 L150.4133,20.7072814 L150.4133,20.7072814 Z" id="Shape"></path>
            <path d="M154.40626,17.1289143 L156.56718,17.1289143 L156.56718,18.4426569 C157.01654,17.4745949 157.93266,16.9732739 159.02182,16.9732739 C160.11098,16.9732739 161.09622,17.4745949 161.40732,18.6154972 C161.92582,17.4745949 162.9804,16.9732739 164.25958,16.9732739 C165.83266,16.9732739 167.09466,17.9587159 167.09466,19.8600997 L167.09466,26.0487521 L164.88198,26.0487521 L164.88198,20.3788008 C164.88198,19.4107388 164.36328,18.9439779 163.53348,18.9439779 C162.60018,18.9439779 161.87408,19.5835592 161.87408,20.8455417 L161.87408,26.0487521 L159.64402,26.0487521 L159.64402,20.3788008 C159.64402,19.4107388 159.12552,18.9439779 158.29572,18.9439779 C157.3796,18.9439779 156.63632,19.5835592 156.63632,20.8455417 L156.63632,26.0487521 L154.40626,26.0487521 L154.40626,17.1289143 L154.40626,17.1289143 Z" id="Path"></path>
            <path d="M171.24286,24.6485093 L171.24286,26.0487721 L169.16866,26.0487721 L169.16866,13.7579675 L171.38134,13.7579675 L171.38134,18.494617 C171.8481,17.5782952 172.81596,16.9732739 174.1299,16.9732739 C176.56716,16.9732739 177.96742,18.8574577 177.96742,21.5714631 C177.96742,24.3545887 176.49804,26.2389725 174.06078,26.2389725 C172.5914,26.2389725 171.60594,25.5302511 171.2429,24.6485093 L171.24286,24.6485093 Z M173.55944,24.2163284 C174.97688,24.2163284 175.70298,23.1791264 175.70298,21.5888432 C175.70298,19.99856 174.99406,19.013118 173.594,19.013118 C172.17636,19.013118 171.38132,20.01576 171.38132,21.6060232 C171.38132,23.2136864 172.17636,24.2163284 173.55942,24.2163284 L173.55944,24.2163284 Z" id="Shape"></path>
            <path d="M179.2118,21.7099234 C179.2118,19.013118 180.68118,16.9732739 183.51606,16.9732739 C186.42026,16.9732739 187.59574,19.0650581 187.59574,21.6407833 L187.59574,22.2112444 L181.3899,22.2112444 C181.52816,23.6978274 182.25426,24.4411089 183.60258,24.4411089 C184.60522,24.4411089 185.21024,24.0608681 185.48676,23.3002066 L187.57854,23.7495675 C187.02528,25.3746107 185.60784,26.2389725 183.568,26.2389725 C180.95772,26.2389725 179.2118,24.6139292 179.2118,21.7099234 L179.2118,21.7099234 Z M185.41766,20.7072814 C185.3485,19.4452989 184.74348,18.7711375 183.51608,18.7711375 C182.28868,18.7711375 181.64928,19.4452989 181.44188,20.7072814 L185.41766,20.7072814 L185.41766,20.7072814 Z" id="Shape"></path>
            <path d="M189.42798,17.1289143 L191.57152,17.1289143 L191.57152,18.7191974 C191.86524,17.6993754 192.6259,17.0252141 193.76682,17.0252141 L194.54468,17.0252141 L194.54468,19.2033184 L193.74964,19.2033184 C192.2283,19.2033184 191.64066,20.1022602 191.64066,21.6579633 L191.64066,26.0487521 L189.42798,26.0487521 L189.42798,17.1289143 L189.42798,17.1289143 Z" id="Path"></path>
            <path d="M195.32212,26.8094336 L197.48304,26.3426727 C197.60392,27.1896544 198.24352,27.8120556 199.6092,27.8120556 C201.00946,27.8120556 201.83926,27.1031342 201.83926,25.7548315 L201.83926,24.2508685 C201.35512,25.2017504 200.3353,25.7548315 199.05614,25.7548315 C196.96436,25.7548315 195.21844,24.3373887 195.21844,21.4331829 C195.21844,18.477217 197.0163,16.9732539 199.15984,16.9732539 C200.49076,16.9732539 201.3897,17.5610951 201.8047,18.3735167 L201.8047,17.1289143 L204,17.1289143 L204,25.478291 C204,28.2959966 202.01212,29.5579791 199.59204,29.5579791 C197.41394,29.5579791 195.77172,28.5899172 195.32214,26.8094136 L195.32212,26.8094336 Z M199.6092,23.8880278 C200.76748,23.8880278 201.77012,23.1619263 201.77012,21.4505629 C201.77012,19.8083396 200.8538,19.013098 199.64376,19.013098 C198.43372,19.013098 197.48304,19.7737595 197.48304,21.4677429 C197.48304,23.1099662 198.41654,23.8880278 199.6092,23.8880278 L199.6092,23.8880278 Z" id="Shape"></path>
            <path d="M26.6781,32.8171856 C27.50574,32.5992052 28.1112,31.7420835 28.04344,30.7664415 C27.95878,29.5569391 26.81366,28.2776166 24.09784,28.8140976 C23.10946,29.009758 22.30028,29.2973786 21.52382,29.6141392 C20.70878,29.9466199 19.92988,30.3111806 19.01766,30.6352213 C18.0783,30.9689219 17.28992,31.1131622 16.67674,31.0611221 C16.12518,31.014322 15.71532,30.8087616 15.46482,30.4394609 C15.124,29.9283599 15.61932,29.4130388 15.82888,29.2691185 C16.21092,29.019378 16.55486,28.5931572 16.35164,27.9000558 C15.98552,27.9637559 15.34266,28.1789164 14.83104,28.5823972 C14.4078,28.9160978 14.0743,29.3785988 14.06142,29.99078 C14.08574,30.8278017 14.66464,31.481743 15.62772,31.7124234 C16.274,31.8671237 16.78954,31.9168838 17.39872,31.8371237 C18.27314,31.7226434 19.3408,31.3413227 21.26572,30.6204012 C23.06436,29.9266599 24.07558,29.6288193 24.85038,29.5938192 C25.33652,29.5718591 25.72968,29.6534193 26.1659,29.8055996 C26.43866,29.9007998 26.63582,30.0451201 26.76708,30.2138004 C26.92314,30.4144408 26.98582,30.6495213 26.97128,30.8772818 C26.94384,31.3045826 26.64442,31.7062034 26.1792,31.8065636 C26.07208,31.8297037 25.95606,31.8368237 25.83252,31.8245836 C25.68858,31.8108236 25.53194,31.7812036 25.35518,31.7483835 C24.8333,31.6505033 24.1295,31.519143 23.03418,31.6397833 C22.37706,31.7121634 21.579,31.8752438 20.59472,32.1907044 C18.54102,32.8488857 17.0082,33.1125462 15.8249,33.1579263 C14.14892,33.2222064 13.17412,32.8485457 12.41348,32.5378051 C12.33848,31.8095836 12.16308,31.2079424 11.94814,30.7190014 C11.59932,29.9255599 11.14618,29.4288989 10.84824,29.1696383 C10.84824,29.1696383 11.0207,29.0627581 11.10644,28.4627569 C10.67782,28.3770568 10.07246,28.6183172 10.07246,28.6183172 C10.07246,28.6183172 8.94844,27.8966358 7.42862,28.1537763 C6.84864,28.2553565 6.57246,28.4140968 6.41368,28.6765174 C5.20606,29.1198982 5.10762,29.1960784 4.79972,29.3738587 C4.59962,29.499779 4.61662,29.6680193 4.61662,29.7103594 C4.61662,29.8077196 4.6674,29.8680197 4.68956,29.8944798 C4.7214,29.9315199 4.75098,29.9653799 4.75098,30.0331001 C4.7542,30.3844208 4.72354,30.3596007 4.83144,30.6379013 C4.8791,30.7500615 4.98486,30.7416015 5.1119,30.6982214 C5.90888,30.4008608 6.52068,30.6327813 6.55976,31.1718423 C6.591,31.6366833 6.1577,31.9704239 5.5788,32.016984 C5.4497,32.024744 5.36006,32.0300241 5.30996,32.0328441 C5.21474,32.0391841 5.15118,32.0476441 5.16182,32.1587643 C5.17412,32.2466845 5.30088,32.5633251 5.33526,32.6531253 C5.42236,32.8981658 5.47804,32.9324859 5.6834,32.9398859 C6.0708,32.9536459 6.57246,32.8573457 6.7333,32.8076056 C6.7333,32.8076056 6.7164,33.2986066 6.86982,33.9673679 C5.52782,33.483767 4.50332,33.3335267 3.3667,33.3747867 C2.23134,33.4156668 1.47696,33.6484273 0.97646,33.9291879 C0.09072,34.4260289 0,35.0731501 0,35.0731501 C0.00634,35.0741701 1.30606,35.3799908 1.83838,35.2297505 C2.19932,35.1270903 2.44698,34.7778896 2.44698,34.7778896 C2.44698,34.7778896 3.3048,34.9540099 4.43302,35.5525911 C4.98478,35.8453117 5.60118,36.2390925 6.21358,36.7626935 C6.23624,36.7820336 7.654,36.1364123 7.72374,36.1107722 C7.89864,36.0464521 8.0296,36.1632123 8.05968,36.2201524 C8.10896,36.3134326 8.12608,36.488373 7.98936,36.5795332 C7.85498,36.7001334 6.9048,37.1196142 5.98926,37.6603553 C5.39444,38.012736 4.74786,38.3947568 4.1922,38.7344175 C3.75616,38.6783774 3.56672,38.6613973 3.15714,38.6656573 C2.28184,38.6751974 1.70606,39.4402589 1.70606,40 L5.11084,40 C5.25264,39.9484799 6.67636,39.6579393 8.11416,39.3702787 C9.15938,39.1611383 10.21202,38.9535379 10.78476,38.8403777 C11.0416,38.7896176 11.20048,38.7578975 11.22178,38.7534975 C11.29814,38.7362775 11.40146,38.7239974 11.49482,38.6324773 C11.5416,38.5865972 11.58584,38.520757 11.62294,38.4243968 C11.6494,38.3587567 11.7701,38.008536 11.7701,38.008536 L12.51512,37.9365959 C13.50956,37.8523157 14.3913,37.6521153 15.1827,37.3988548 C16.19978,37.0734141 17.06786,36.6603733 17.83446,36.2931926 C18.76796,35.8455917 19.53846,35.476291 20.20624,35.4466509 C20.09892,36.1068122 20.254,36.6203732 20.35908,37.1262943 C20.45928,37.6081152 20.51406,38.0829962 20.2539,38.6709373 C18.28212,38.6709373 18.49912,40 18.49912,40 L21.91874,40 C21.91874,40 22.15966,39.2135184 22.71346,38.3468167 C22.96834,37.9477959 23.28064,37.5315751 23.6822,37.1668543 C23.7659,37.0917342 23.75846,37.012354 23.71082,36.9488739 C23.27684,36.4102528 23.0575,35.3256507 23.0575,35.3256507 C23.0204,35.1869904 23.18788,35.0949702 23.245,35.0854302 C23.30526,35.0748701 23.46766,35.0737101 23.50086,35.2299505 C23.50086,35.2299505 23.57712,35.982092 24.28944,36.6371133 C24.74012,37.0502941 25.2872,37.3760148 25.8327,37.6329753 C26.48876,37.9419559 27.14286,38.1515363 27.62538,38.2942566 C28.17674,38.4572169 28.23818,38.6412973 28.23818,38.6963174 C28.22548,38.6963174 28.0286,38.7058574 27.99688,38.7090374 C27.71748,38.7396975 27.39678,38.7756976 27.02314,39.1301783 C26.6411,39.493119 26.72158,40 26.72158,40 L29.07432,40 C29.38126,40 29.49024,39.8190396 29.59708,39.4730189 C29.66592,39.2508385 29.94424,38.1228362 29.96338,38.0455561 C30.05538,37.7027154 29.95908,37.520675 29.84052,37.4180748 C29.5708,37.1475943 29.24286,36.9107138 28.94042,36.7211534 C28.45,36.4137728 28.02646,36.2307925 28.02646,36.2307925 C27.9706,35.7070914 27.72344,34.8293897 27.37764,34.0379081 C27.17354,33.5707671 26.93184,33.1336663 26.67812,32.8171056 L26.6781,32.8171856 Z M6.52976,29.1094382 C6.88444,28.8975378 7.35046,28.8434377 7.73376,28.8885178 C7.69226,29.5815992 6.7192,29.7653795 6.52976,29.1094382 Z M3.2035,30.5907612 C3.21718,30.5611411 3.2327,30.5319611 3.24998,30.503381 C3.25282,30.498641 3.26688,30.475481 3.27068,30.4703809 C3.2779,30.4606809 3.29362,30.4666409 3.2946,30.478601 C3.30836,30.7516215 3.46502,31.1738223 4.22702,31.2690625 C4.94782,31.3600627 5.48972,31.2373025 5.95222,31.1008222 C6.00408,31.2256825 5.9903,31.4225228 5.75222,31.510323 C5.53738,31.5759432 4.9531,31.7463035 4.045,31.6500033 C3.19714,31.5600031 3.00164,31.0275221 3.2035,30.5907412 L3.2035,30.5907612 Z M26.6781,18.8671577 C27.50574,18.6491773 28.1112,17.7920556 28.04344,16.8164136 C27.95878,15.6069112 26.81366,14.3275887 24.09784,14.8640697 C23.10946,15.0597301 22.30028,15.3473507 21.52382,15.6641113 C20.70878,15.996592 19.92988,16.3611527 19.01766,16.6851934 C18.0783,17.018894 17.28992,17.1631343 16.67674,17.1110942 C16.12518,17.0642941 15.71532,16.8587337 15.46482,16.489433 C15.124,15.978332 15.61932,15.4630109 15.82888,15.3190906 C16.21092,15.0693501 16.55486,14.6431293 16.35164,13.9500279 C15.98552,14.013728 15.34266,14.2288885 14.83104,14.6323693 C14.4078,14.9660699 14.0743,15.4285709 14.06142,16.0407521 C14.08574,16.8777738 14.66464,17.5317151 15.62772,17.7623955 C16.274,17.9170958 16.78954,17.9668559 17.39872,17.8870958 C18.27314,17.7726155 19.3408,17.3912948 21.26572,16.6703733 C23.06436,15.976632 24.07558,15.6787914 24.85038,15.6437913 C25.33652,15.6218312 25.72968,15.7033914 26.1659,15.8555717 C26.43866,15.9507719 26.63582,16.0950922 26.76708,16.2637725 C26.92314,16.4644129 26.98582,16.6994934 26.97128,16.9272539 C26.94384,17.3545547 26.64442,17.7561755 26.1792,17.8565357 C26.07208,17.8796758 25.95606,17.8867958 25.83252,17.8745557 C25.68858,17.8607957 25.53194,17.8311757 25.35518,17.7983556 C24.8333,17.7004754 24.1295,17.5691151 23.03418,17.6897554 C22.37706,17.7621355 21.579,17.9252159 20.59472,18.2406765 C18.54102,18.8988578 17.0082,19.1625183 15.8249,19.2078984 C14.14892,19.2721785 13.17412,18.8985178 12.41348,18.5877772 C12.33848,17.8595557 12.16308,17.2579145 11.94814,16.7689735 C11.59932,15.975532 11.14618,15.478871 10.84824,15.2196104 C10.84824,15.2196104 11.0207,15.1127302 11.10644,14.512729 C10.67782,14.4270289 10.07246,14.6682893 10.07246,14.6682893 C10.07246,14.6682893 8.94844,13.9466079 7.42862,14.2037484 C6.84864,14.3053286 6.57246,14.4640689 6.41368,14.7264895 C5.20606,15.1698703 5.10762,15.2460505 4.79972,15.4238308 C4.59962,15.5497511 4.61662,15.7179914 4.61662,15.7603315 C4.61662,15.8576917 4.6674,15.9179918 4.68956,15.9444519 C4.7214,15.981492 4.75098,16.015352 4.75098,16.0830722 C4.7542,16.4343929 4.72354,16.4095728 4.83144,16.6878734 C4.8791,16.8000336 4.98486,16.7915736 5.1119,16.7481935 C5.90888,16.4508329 6.52068,16.6827534 6.55976,17.2218144 C6.591,17.6866554 6.1577,18.020396 5.5788,18.0669561 C5.4497,18.0747161 5.36006,18.0799962 5.30996,18.0828162 C5.21474,18.0891562 5.15118,18.0976162 5.16182,18.2087364 C5.17412,18.2966566 5.30088,18.6132972 5.33526,18.7030974 C5.42236,18.9481379 5.47804,18.982458 5.6834,18.989858 C6.0708,19.003618 6.57246,18.9073178 6.7333,18.8575777 C6.7333,18.8575777 6.7164,19.3485787 6.86982,20.01734 C5.52782,19.5337391 4.50332,19.3834988 3.3667,19.4247588 C2.23134,19.4656389 1.47696,19.6983994 0.97646,19.97916 C0.09072,20.476001 0,21.1231222 0,21.1231222 C0.00634,21.1241422 1.30606,21.4299629 1.83838,21.2797226 C2.19932,21.1770624 2.44698,20.8278617 2.44698,20.8278617 C2.44698,20.8278617 3.3048,21.003982 4.43302,21.6025632 C4.98478,21.8952838 5.60118,22.2890646 6.21358,22.8126656 C6.23624,22.8320057 7.654,22.1863844 7.72374,22.1607443 C7.89864,22.0964242 8.0296,22.2131844 8.05968,22.2701245 C8.10896,22.3634047 8.12608,22.5383451 7.98936,22.6295053 C7.85498,22.7501055 6.9048,23.1695863 5.98926,23.7103274 C5.39444,24.0627081 4.74786,24.4447289 4.1922,24.7843896 C3.75616,24.7283495 3.56672,24.7113694 3.15714,24.7156294 C2.28184,24.7251695 1.70606,25.490231 1.70606,26.0499721 L5.11084,26.0499721 C5.25264,25.998452 6.67636,25.7079114 8.11416,25.4202508 C9.15938,25.2111104 10.21202,25.00351 10.78476,24.8903498 C11.0416,24.8395897 11.20048,24.8078696 11.22178,24.8034696 C11.29814,24.7862496 11.40146,24.7739695 11.49482,24.6824494 C11.5416,24.6365693 11.58584,24.5707291 11.62294,24.4743689 C11.6494,24.4087288 11.7701,24.0585081 11.7701,24.0585081 L12.51512,23.986568 C13.50956,23.9022878 14.3913,23.7020874 15.1827,23.4488269 C16.19978,23.1233862 17.06786,22.7103454 17.83446,22.3431647 C18.76796,21.8955638 19.53846,21.5262631 20.20624,21.496623 C20.09892,22.1567843 20.254,22.6703453 20.35908,23.1762664 C20.45928,23.6580873 20.51406,24.1329683 20.2539,24.7209094 C18.28212,24.7209094 18.49912,26.0499721 18.49912,26.0499721 L21.91874,26.0499721 C21.91874,26.0499721 22.15966,25.2634905 22.71346,24.3967888 C22.96834,23.997768 23.28064,23.5815472 23.6822,23.2168264 C23.7659,23.1417063 23.75846,23.0623261 23.71082,22.998846 C23.27684,22.4602249 23.0575,21.3756228 23.0575,21.3756228 C23.0204,21.2369625 23.18788,21.1449423 23.245,21.1354023 C23.30526,21.1248422 23.46766,21.1236822 23.50086,21.2799226 C23.50086,21.2799226 23.57712,22.0320641 24.28944,22.6870854 C24.74012,23.1002662 25.2872,23.4259869 25.8327,23.6829474 C26.48876,23.991928 27.14286,24.2015084 27.62538,24.3442287 C28.17674,24.507189 28.23818,24.6912694 28.23818,24.7462895 C28.22548,24.7462895 28.0286,24.7558295 27.99688,24.7590095 C27.71748,24.7896696 27.39678,24.8256697 27.02314,25.1801504 C26.6411,25.5430911 26.72158,26.0499721 26.72158,26.0499721 L29.07432,26.0499721 C29.38126,26.0499721 29.49024,25.8690117 29.59708,25.522991 C29.66592,25.3008106 29.94424,24.1728083 29.96338,24.0955282 C30.05538,23.7526875 29.95908,23.5706471 29.84052,23.4680469 C29.5708,23.1975664 29.24286,22.9606859 28.94042,22.7711255 C28.45,22.4637449 28.02646,22.2807646 28.02646,22.2807646 C27.9706,21.7570635 27.72344,20.8793618 27.37764,20.0878802 C27.17354,19.6207392 26.93184,19.1836384 26.67812,18.8670777 L26.6781,18.8671577 Z M6.52976,15.1594103 C6.88444,14.9475099 7.35046,14.8934098 7.73376,14.9384899 C7.69226,15.6315713 6.7192,15.8153516 6.52976,15.1594103 Z M3.2035,16.6407333 C3.21718,16.6111132 3.2327,16.5819332 3.24998,16.5533531 C3.25282,16.5486131 3.26688,16.5254531 3.27068,16.520353 C3.2779,16.510653 3.29362,16.516613 3.2946,16.5285731 C3.30836,16.8015936 3.46502,17.2237944 4.22702,17.3190346 C4.94782,17.4100348 5.48972,17.2872746 5.95222,17.1507943 C6.00408,17.2756546 5.9903,17.4724949 5.75222,17.5602951 C5.53738,17.6259153 4.9531,17.7962756 4.045,17.6999754 C3.19714,17.6099752 3.00164,17.0774942 3.2035,16.6407133 L3.2035,16.6407333 Z M26.6781,4.91712983 C27.50574,4.6991494 28.1112,3.84202768 28.04344,2.86638573 C27.95878,1.65688331 26.81366,0.377560755 24.09784,0.914041828 C23.10946,1.10970222 22.30028,1.39732279 21.52382,1.71408343 C20.70878,2.04656409 19.92988,2.41112482 19.01766,2.73516547 C18.0783,3.06886614 17.28992,3.21310643 16.67674,3.16106632 C16.12518,3.11426623 15.71532,2.90870582 15.46482,2.53940508 C15.124,2.02830406 15.61932,1.51298303 15.82888,1.36906274 C16.21092,1.11932224 16.55486,0.693101386 16.35164,0 C15.98552,0.0637001274 15.34266,0.278860558 14.83104,0.682341365 C14.4078,1.01604203 14.0743,1.47854296 14.06142,2.09072418 C14.08574,2.92774586 14.66464,3.58168716 15.62772,3.81236762 C16.274,3.96706793 16.78954,4.01682803 17.39872,3.93706787 C18.27314,3.82258765 19.3408,3.44126688 21.26572,2.72034544 C23.06436,2.02660405 24.07558,1.72876346 24.85038,1.69376339 C25.33652,1.67180334 25.72968,1.75336351 26.1659,1.90554381 C26.43866,2.000744 26.63582,2.14506429 26.76708,2.31374463 C26.92314,2.51438503 26.98582,2.7494655 26.97128,2.97722595 C26.94384,3.40452681 26.64442,3.80614761 26.1792,3.90650781 C26.07208,3.92964786 25.95606,3.93676787 25.83252,3.92452785 C25.68858,3.91076782 25.53194,3.88114776 25.35518,3.8483277 C24.8333,3.7504475 24.1295,3.61908724 23.03418,3.73972748 C22.37706,3.81210762 21.579,3.97518795 20.59472,4.29064858 C18.54102,4.9488299 17.0082,5.21249042 15.8249,5.25787052 C14.14892,5.32215064 13.17412,4.9484899 12.41348,4.63774928 C12.33848,3.90952782 12.16308,3.30788662 11.94814,2.81894564 C11.59932,2.02550405 11.14618,1.52884306 10.84824,1.26958254 C10.84824,1.26958254 11.0207,1.16270233 11.10644,0.562701125 C10.67782,0.477000954 10.07246,0.718261437 10.07246,0.718261437 C10.07246,0.718261437 8.94844,-0.00342000684 7.42862,0.253720507 C6.84864,0.355300711 6.57246,0.514041028 6.41368,0.776461553 C5.20606,1.21984244 5.10762,1.29602259 4.79972,1.47380295 C4.59962,1.5997232 4.61662,1.76796354 4.61662,1.81030362 C4.61662,1.90766382 4.6674,1.96796394 4.68956,1.99442399 C4.7214,2.03146406 4.75098,2.06532413 4.75098,2.13304427 C4.7542,2.48436497 4.72354,2.45954492 4.83144,2.73784548 C4.8791,2.8500057 4.98486,2.84154568 5.1119,2.7981656 C5.90888,2.500805 6.52068,2.73272547 6.55976,3.27178654 C6.591,3.73662747 6.1577,4.07036814 5.5788,4.11692823 C5.4497,4.12468825 5.36006,4.12996826 5.30996,4.13278827 C5.21474,4.13912828 5.15118,4.1475883 5.16182,4.25870852 C5.17412,4.34662869 5.30088,4.66326933 5.33526,4.75306951 C5.42236,4.99811 5.47804,5.03243006 5.6834,5.03983008 C6.0708,5.05359011 6.57246,4.95728991 6.7333,4.90754982 C6.7333,4.90754982 6.7164,5.3985508 6.86982,6.06731213 C5.52782,5.58371117 4.50332,5.43347087 3.3667,5.47473095 C2.23134,5.51561103 1.47696,5.7483715 0.97646,6.02913206 C0.09072,6.52597305 0,7.17309435 0,7.17309435 C0.00634,7.17411435 1.30606,7.47993496 1.83838,7.32969466 C2.19932,7.22703445 2.44698,6.87783376 2.44698,6.87783376 C2.44698,6.87783376 3.3048,7.05395411 4.43302,7.65253531 C4.98478,7.94525589 5.60118,8.33903668 6.21358,8.86263773 C6.23624,8.88197776 7.654,8.23635647 7.72374,8.21071642 C7.89864,8.14639629 8.0296,8.26315653 8.05968,8.32009664 C8.10896,8.41337683 8.12608,8.58831718 7.98936,8.67947736 C7.85498,8.8000776 6.9048,9.21955844 5.98926,9.76029952 C5.39444,10.1126802 4.74786,10.494701 4.1922,10.8343617 C3.75616,10.7783216 3.56672,10.7613415 3.15714,10.7656015 C2.28184,10.7751416 1.70606,11.5402031 1.70606,12.0999442 L5.11084,12.0999442 C5.25264,12.0484241 6.67636,11.7578835 8.11416,11.4702229 C9.15938,11.2610825 10.21202,11.0534821 10.78476,10.9403219 C11.0416,10.8895618 11.20048,10.8578417 11.22178,10.8534417 C11.29814,10.8362217 11.40146,10.8239416 11.49482,10.7324215 C11.5416,10.6865414 11.58584,10.6207012 11.62294,10.524341 C11.6494,10.4587009 11.7701,10.1084802 11.7701,10.1084802 L12.51512,10.0365401 C13.50956,9.9522599 14.3913,9.7520595 15.1827,9.498799 C16.19978,9.17335835 17.06786,8.76031752 17.83446,8.39313679 C18.76796,7.94553589 19.53846,7.57623515 20.20624,7.54659509 C20.09892,8.20675641 20.254,8.72031744 20.35908,9.22623845 C20.45928,9.70805942 20.51406,10.1829404 20.2539,10.7708815 C18.28212,10.7708815 18.49912,12.0999442 18.49912,12.0999442 L21.91874,12.0999442 C21.91874,12.0999442 22.15966,11.3134626 22.71346,10.4467609 C22.96834,10.0477401 23.28064,9.63151926 23.6822,9.26679853 C23.7659,9.19167838 23.75846,9.11229822 23.71082,9.0488181 C23.27684,8.51019702 23.0575,7.42559485 23.0575,7.42559485 C23.0204,7.28693457 23.18788,7.19491439 23.245,7.18537437 C23.30526,7.17481435 23.46766,7.17365435 23.50086,7.32989466 C23.50086,7.32989466 23.57712,8.08203616 24.28944,8.73705747 C24.74012,9.1502383 25.2872,9.47595895 25.8327,9.73291947 C26.48876,10.0419001 27.14286,10.2514805 27.62538,10.3942008 C28.17674,10.5571611 28.23818,10.7412415 28.23818,10.7962616 C28.22548,10.7962616 28.0286,10.8058016 27.99688,10.8089816 C27.71748,10.8396417 27.39678,10.8756418 27.02314,11.2301225 C26.6411,11.5930632 26.72158,12.0999442 26.72158,12.0999442 L29.07432,12.0999442 C29.38126,12.0999442 29.49024,11.9189838 29.59708,11.5729631 C29.66592,11.3507827 29.94424,10.2227804 29.96338,10.1455003 C30.05538,9.80265961 29.95908,9.62061924 29.84052,9.51801904 C29.5708,9.2475385 29.24286,9.01065802 28.94042,8.82109764 C28.45,8.51371703 28.02646,8.33073666 28.02646,8.33073666 C27.9706,7.80703561 27.72344,6.92933386 27.37764,6.13785228 C27.17354,5.67071134 26.93184,5.23361047 26.67812,4.91704983 L26.6781,4.91712983 Z M6.52976,1.20938242 C6.88444,0.997481995 7.35046,0.943381887 7.73376,0.988461977 C7.69226,1.68154336 6.7192,1.86532373 6.52976,1.20938242 L6.52976,1.20938242 Z M3.2035,2.69070538 C3.21718,2.66108532 3.2327,2.63190526 3.24998,2.60332521 C3.25282,2.5985852 3.26688,2.57542515 3.27068,2.57032514 C3.2779,2.56062512 3.29362,2.56658513 3.2946,2.57854516 C3.30836,2.8515657 3.46502,3.27376655 4.22702,3.36900674 C4.94782,3.46000692 5.48972,3.33724667 5.95222,3.2007664 C6.00408,3.32562665 5.9903,3.52246704 5.75222,3.61026722 C5.53738,3.67588735 4.9531,3.84624769 4.045,3.7499475 C3.19714,3.65994732 3.00164,3.12746625 3.2035,2.69068538 L3.2035,2.69070538 Z" id="Shape"></path>
        </g>
    </g>
</svg>